<?xml version="1.0" encoding="utf-8"?>
<!-- Generated by IcoMoon.io -->
<!DOCTYPE svg PUBLIC "-//W3C//DTD SVG 1.1//EN" "http://www.w3.org/Graphics/SVG/1.1/DTD/svg11.dtd">
<svg version="1.1" xmlns="http://www.w3.org/2000/svg" xmlns:xlink="http://www.w3.org/1999/xlink" width="32" height="32" viewBox="0 0 32 32">
<path fill="#444444" d="M9.144 22.987l9.84-4.032 4.032-9.935-9.934 3.939-3.938 10.028zM16.029 14.029c1.104 0 2 0.896 2 2s-0.896 2-2 2-2-0.896-2-2 0.896-2 2-2zM16 0c-8.837 0-16 7.163-16 16s7.163 16 16 16 16-7.163 16-16-7.163-16-16-16zM16.112 28.021c-6.647 0-12.035-5.388-12.035-12.034s5.388-12.035 12.035-12.035c6.646 0 12.034 5.389 12.034 12.036s-5.387 12.033-12.034 12.033z"></path>
</svg>
